<svg width="35" height="35" viewBox="0 0 35 35" fill="none" xmlns="http://www.w3.org/2000/svg">
<path d="M28.5044 26.183C28.8126 26.4912 28.9858 26.9092 28.9858 27.3451C28.9858 27.781 28.8126 28.199 28.5044 28.5072C28.1962 28.8154 27.7782 28.9886 27.3423 28.9886C26.9064 28.9886 26.4884 28.8154 26.1802 28.5072L17.4999 19.8242L8.81693 28.5045C8.50872 28.8127 8.0907 28.9858 7.65482 28.9858C7.21895 28.9858 6.80092 28.8127 6.49271 28.5045C6.1845 28.1963 6.01135 27.7783 6.01135 27.3424C6.01135 26.9065 6.1845 26.4885 6.49271 26.1803L15.1757 17.5L6.49545 8.81699C6.18724 8.50878 6.01409 8.09075 6.01409 7.65488C6.01409 7.219 6.18724 6.80098 6.49545 6.49277C6.80366 6.18456 7.22168 6.01141 7.65756 6.01141C8.09343 6.01141 8.51146 6.18456 8.81967 6.49277L17.4999 15.1758L26.1829 6.4914C26.4912 6.18319 26.9092 6.01004 27.3451 6.01004C27.7809 6.01004 28.199 6.18319 28.5072 6.4914C28.8154 6.79961 28.9885 7.21764 28.9885 7.65351C28.9885 8.08939 28.8154 8.50741 28.5072 8.81562L19.8242 17.5L28.5044 26.183Z" fill="white"/>
</svg>
